PathFileType	4	(X/Y/Z)	/Users/itak/Documents/Research/Walk-IL/dataset/trc/00575_00009.trc
DataRate	CameraRate	NumFrames	NumMarkers	Units	OrigDataRate	OrigDataStartFrame	OrigNumFrames
100.000000	100.000000	4	53	mm	100.000000	65	521
Frame#	Time	RPSI			LPSI			L3			STRN			T10			C7			CLAV			RBAK			LBAK			LSHO			LUPA			LAEL			LAOL			LWTS			LWPS			LFRA			LIFD			LHPS			LHTS			RSHO			RUPA			RAEL			RAOL			RWTS			RWPS			RFRA			RIFD			RHTS			RHPS			RBHD			RFHD			LBHD			LHIP			RHIP			RASI			LASI			LKNE			LTHI			LANK			LTIP			LTOE			LMT1			LMT5			LHEE			RKNE			RTHI			RANK			RTIP			RTOE			RMT1			RMT5			RHEE			LFHD			
		X1	Y1	Z1	X2	Y2	Z2	X3	Y3	Z3	X4	Y4	Z4	X5	Y5	Z5	X6	Y6	Z6	X7	Y7	Z7	X8	Y8	Z8	X9	Y9	Z9	X10	Y10	Z10	X11	Y11	Z11	X12	Y12	Z12	X13	Y13	Z13	X14	Y14	Z14	X15	Y15	Z15	X16	Y16	Z16	X17	Y17	Z17	X18	Y18	Z18	X19	Y19	Z19	X20	Y20	Z20	X21	Y21	Z21	X22	Y22	Z22	X23	Y23	Z23	X24	Y24	Z24	X25	Y25	Z25	X26	Y26	Z26	X27	Y27	Z27	X28	Y28	Z28	X29	Y29	Z29	X30	Y30	Z30	X31	Y31	Z31	X32	Y32	Z32	X33	Y33	Z33	X34	Y34	Z34	X35	Y35	Z35	X36	Y36	Z36	X37	Y37	Z37	X38	Y38	Z38	X39	Y39	Z39	X40	Y40	Z40	X41	Y41	Z41	X42	Y42	Z42	X43	Y43	Z43	X44	Y44	Z44	X45	Y45	Z45	X46	Y46	Z46	X47	Y47	Z47	X48	Y48	Z48	X49	Y49	Z49	X50	Y50	Z50	X51	Y51	Z51	X52	Y52	Z52	X53	Y53	Z53	

66	0.65	-1212.913330078125	1017.195434570312	-236.8135681152344	-1138.969970703125	1022.397521972656	-347.9188537597656	-1169.005737304688	1105.004028320312	-291.7683715820312	-967.0198974609375	1295.531372070312	-178.2619323730469	-1178.696166992188	1231.671264648438	-297.7923583984375	-1145.62841796875	1506.252197265625	-267.2337036132812	-985.31591796875	1407.075317382812	-189.7493591308594	-1245.374145507812	1379.651977539062	-225.7401733398438	-1131.224243164062	1453.216430664062	-363.7715148925781	-1006.074035644531	1476.99072265625	-389.4739685058594	-975.2183837890625	1349.872680664062	-461.2046508789062	-934.7463989257812	1130.5029296875	-465.4122314453125	-1036.00439453125	1117.493896484375	-468.625732421875	-870.1507568359375	897.9037475585938	-360.7078247070312	-866.88818359375	869.8519287109375	-443.2323303222656	-906.509765625	1046.586181640625	-454.5049743652344	-877.5274047851562	735.209228515625	-358.0172424316406	-860.6522827148438	811.3983764648438	-428.7217712402344	-841.0836181640625	821.664306640625	-364.3937072753906	-1170.007202148438	1470.068481445312	-102.7011642456055	-1218.0517578125	1404.259765625	-52.17853546142578	-1234.601684570312	1113.75390625	-14.58969974517822	-1273.161865234375	1097.127685546875	-62.22933197021484	-1094.786865234375	894.7973022460938	5.642809867858887	-1164.798706054688	872.3305053710938	43.85401916503906	-1228.160400390625	1058.378295898438	-4.226800441741943	-1086.058349609375	721.6473999023438	6.010693073272705	-1075.161010742188	802.8019409179688	29.29580497741699	-1147.842651367188	798.4237670898438	48.79646682739258	-1118.420654296875	1685.836791992188	-176.2190246582031	-999.9859619140625	1717.22021484375	-107.964241027832	-1022.040771484375	1686.319946289062	-310.7945251464844	-963.5065307617188	941.0553588867188	-392.5523071289062	-1178.59033203125	935.685302734375	-71.80168914794922	-1072.9033203125	967.4082641601562	-71.91105651855469	-924.7160034179688	961.3291625976562	-305.959228515625	-977.9848022460938	494.9090270996094	-351.9684753417969	-956.7828979492188	660.4281616210938	-375.6253662109375	-1050.7236328125	33.30932998657227	-403.4457397460938	-1032.69677734375	252.9463348388672	-397.289794921875	-889.499755859375	37.18708801269531	-255.0358581542969	-971.372314453125	39.07057952880859	-257.4844665527344	-934.1754760742188	34.97193908691406	-359.134033203125	-1137.343139648438	30.34910011291504	-385.9927673339844	-1120.210205078125	493.6753234863281	-112.1747589111328	-1142.131103515625	780.193115234375	-57.98745346069336	-1188.942993164062	36.04672241210938	-199.1846313476562	-1114.817016601562	350.2357788085938	-131.8435363769531	-986.7758178710938	38.52460479736328	-100.1868667602539	-1013.30078125	36.65394973754883	-173.5758666992188	-1093.03369140625	39.69981384277344	-105.631462097168	-1201.313842773438	24.64557456970215	-274.199462890625	-919.6771240234375	1718.24560546875	-230.5078125	
67	0.66	-1213.173706054688	1016.822387695312	-236.5538330078125	-1139.130737304688	1022.191955566406	-347.52099609375	-1169.344970703125	1105.005249023438	-291.4571228027344	-967.0938720703125	1295.34228515625	-177.7217254638672	-1178.84765625	1231.689086914062	-297.4273986816406	-1145.392211914062	1506.1982421875	-266.7276611328125	-985.2100219726562	1406.89501953125	-189.1844024658203	-1245.330200195312	1379.718505859375	-225.3685150146484	-1130.871337890625	1453.203491210938	-363.2760925292969	-1005.684936523438	1476.8681640625	-388.8009948730469	-974.601318359375	1349.861694335938	-460.6706848144531	-934.2418212890625	1130.518188476562	-464.94091796875	-1035.489379882812	1117.521362304688	-468.640625	-869.984375	897.9780883789062	-359.9554138183594	-866.2694702148438	869.9906616210938	-442.4952697753906	-906.0567016601562	1046.610595703125	-453.9510803222656	-877.5532836914062	735.3662109375	-357.0801086425781	-860.0874633789062	811.48828125	-427.9124145507812	-840.8930053710938	821.6804809570312	-363.4732055664062	-1169.987060546875	1469.990600585938	-102.1828536987305	-1218.076293945312	1404.214477539062	-51.77909088134766	-1234.786865234375	1113.670532226562	-14.36842441558838	-1273.356567382812	1097.0791015625	-62.02046966552734	-1094.9853515625	894.7555541992188	5.766566276550293	-1164.881591796875	872.202392578125	43.84106063842773	-1228.324340820312	1058.2802734375	-4.052304744720459	-1086.101928710938	721.593994140625	5.934346675872803	-1075.242431640625	802.7407836914062	29.27394485473633	-1147.92041015625	798.3184204101562	48.77028274536133	-1118.013427734375	1685.7021484375	-175.6382141113281	-999.6781616210938	1716.983764648438	-107.213508605957	-1021.516296386719	1686.087768554688	-310.1193542480469	-963.5437622070312	940.9868774414062	-392.0837097167969	-1178.770385742188	935.416748046875	-71.5179443359375	-1073.154541015625	967.2952880859375	-71.53240966796875	-924.766357421875	961.3132934570312	-305.5050659179688	-977.7105102539062	494.8534851074219	-351.5142822265625	-956.5484619140625	660.4376831054688	-374.9660949707031	-1050.6982421875	33.26780700683594	-403.4516906738281	-1032.554321289062	252.9366760253906	-397.095703125	-889.5120239257812	37.1898193359375	-255.0341186523438	-971.3790893554688	39.06150436401367	-257.4844360351562	-934.1732177734375	34.97179412841797	-359.134033203125	-1137.34130859375	30.3387565612793	-386.0189208984375	-1118.597534179688	493.4472045898438	-111.3302383422852	-1141.752075195312	779.971435546875	-57.52579498291016	-1188.867797851562	36.14407348632812	-199.2037811279297	-1113.420532226562	349.9117736816406	-131.0690460205078	-986.70751953125	38.52730178833008	-100.2477035522461	-1013.225402832031	36.57917785644531	-173.6265106201172	-1092.926879882812	39.77846145629883	-105.7519073486328	-1201.25048828125	24.66488647460938	-274.2439880371094	-919.20751953125	1717.89892578125	-229.75341796875	
68	0.67	-1213.414916992188	1016.448486328125	-236.2545013427734	-1139.284057617188	1021.9912109375	-347.0817565917969	-1169.67529296875	1104.991943359375	-291.1166381835938	-967.1539306640625	1295.147705078125	-177.1428985595703	-1179.001708984375	1231.693725585938	-297.0194091796875	-1145.15869140625	1506.13232421875	-266.173583984375	-985.111083984375	1406.700805664062	-188.5643615722656	-1245.295043945312	1379.76513671875	-224.9445495605469	-1130.488403320312	1453.171630859375	-362.7316589355469	-1005.2900390625	1476.727661132812	-388.09375	-973.98388671875	1349.844848632812	-460.0986328125	-933.7740478515625	1130.514770507812	-464.4393005371094	-1034.974487304688	1117.534545898438	-468.6065368652344	-869.8479614257812	898.00537109375	-359.2593383789062	-865.7063598632812	870.1107177734375	-441.8026733398438	-905.6275634765625	1046.620849609375	-453.408203125	-877.6548461914062	735.4673461914062	-356.1827392578125	-859.610595703125	811.5404052734375	-427.158447265625	-840.7791748046875	821.639892578125	-362.5923767089844	-1169.969848632812	1469.905639648438	-101.6212310791016	-1218.108154296875	1404.15625	-51.31191635131836	-1235.002319335938	1113.570922851562	-14.10888481140137	-1273.568115234375	1097.027709960938	-61.79329299926758	-1095.197509765625	894.6964111328125	5.888455390930176	-1164.989868164062	872.0584716796875	43.83491897583008	-1228.522094726562	1058.166870117188	-3.844950675964355	-1086.184448242188	721.5218505859375	5.869000911712646	-1075.35693359375	802.6693725585938	29.26846885681152	-1148.025268554688	798.1878662109375	48.74890518188477	-1117.585327148438	1685.564575195312	-175.010009765625	-999.3612670898438	1716.740844726562	-106.4210815429688	-1020.975280761719	1685.844482421875	-309.4097595214844	-963.5263671875	940.9421997070312	-391.55078125	-1178.96533203125	935.1383056640625	-71.18260192871094	-1073.382080078125	967.1621704101562	-71.15914916992188	-924.8255615234375	961.2894897460938	-305.0162353515625	-977.419921875	494.7866821289062	-351.0041198730469	-956.286376953125	660.477783203125	-374.3061828613281	-1050.67138671875	33.22133255004883	-403.46337890625	-1032.37158203125	252.9232330322266	-396.8484802246094	-889.5247192382812	37.19481658935547	-255.0376281738281	-971.3860473632812	39.05227661132812	-257.4874267578125	-934.172119140625	34.97209548950195	-359.1370849609375	-1137.340942382812	30.32779502868652	-386.0447692871094	-1117.081665039062	493.2110595703125	-110.4958724975586	-1141.4091796875	779.7462158203125	-57.02827835083008	-1188.794921875	36.24291229248047	-199.2218627929688	-1112.110473632812	349.5988464355469	-130.3023223876953	-986.6452026367188	38.52935409545898	-100.3037796020508	-1013.146423339844	36.50183486938477	-173.6792449951172	-1092.819213867188	39.85154724121094	-105.8780517578125	-1201.191284179688	24.67790222167969	-274.28759765625	-918.6898803710938	1717.543090820312	-228.9804534912109	
69	0.68	-1213.636108398438	1016.085021972656	-235.9080810546875	-1139.424194335938	1021.7919921875	-346.6002502441406	-1169.990112304688	1104.965576171875	-290.7435913085938	-967.2037353515625	1294.947998046875	-176.5174407958984	-1179.153198242188	1231.688354492188	-296.5682983398438	-1144.927612304688	1506.058959960938	-265.5695190429688	-985.0223999023438	1406.4970703125	-187.8837738037109	-1245.265991210938	1379.796630859375	-224.4677276611328	-1130.07958984375	1453.124389648438	-362.1337890625	-1004.894897460938	1476.582153320312	-387.3529968261719	-973.382568359375	1349.827758789062	-459.4883728027344	-933.3517456054688	1130.499267578125	-463.9105224609375	-1034.4794921875	1117.537109375	-468.5070495605469	-869.7252197265625	897.995361328125	-358.6224365234375	-865.2157592773438	870.2067260742188	-441.1566162109375	-905.2245483398438	1046.623657226562	-452.8753967285156	-877.797607421875	735.5406494140625	-355.3462524414062	-859.2233276367188	811.5541381835938	-426.4610290527344	-840.7070922851562	821.5711059570312	-361.7724609375	-1169.94580078125	1469.815063476562	-101.0192260742188	-1218.140258789062	1404.085571289062	-50.77961730957031	-1235.24462890625	1113.456909179688	-13.80540370941162	-1273.799072265625	1096.975830078125	-61.53634643554688	-1095.415161132812	894.6177368164062	6.000813484191895	-1165.126342773438	871.90087890625	43.84384918212891	-1228.751831054688	1058.040161132812	-3.600781202316284	-1086.310668945312	721.4283447265625	5.811185836791992	-1075.50146484375	802.584716796875	29.27257537841797	-1148.16162109375	798.0318603515625	48.73728942871094	-1117.14599609375	1685.428955078125	-174.3313140869141	-999.0245361328125	1716.48974609375	-105.593017578125	-1020.424743652344	1685.594848632812	-308.6631469726562	-963.464599609375	940.9348754882812	-390.9549865722656	-1179.183349609375	934.8541259765625	-70.78487396240234	-1073.598510742188	967.0140380859375	-70.77983856201172	-924.8876342773438	961.2693481445312	-304.4794616699219	-977.108154296875	494.7176208496094	-350.419189453125	-955.9977416992188	660.5414428710938	-373.6456604003906	-1050.643432617188	33.17423248291016	-403.4855346679688	-1032.149047851562	252.9079895019531	-396.5455627441406	-889.5386352539062	37.20248031616211	-255.0455322265625	-971.3946533203125	39.04233932495117	-257.4920959472656	-934.1758422851562	34.97574996948242	-359.14111328125	-1137.342529296875	30.31561851501465	-386.0711364746094	-1115.685668945312	492.9757080078125	-109.6708450317383	-1141.111206054688	779.5176391601562	-56.49818801879883	-1188.724487304688	36.34234619140625	-199.2404937744141	-1110.900512695312	349.2952880859375	-129.5520324707031	-986.5892333984375	38.53151702880859	-100.3575668334961	-1013.062438964844	36.42341232299805	-173.7371215820312	-1092.71240234375	39.92090606689453	-106.0057754516602	-1201.140502929688	24.68412971496582	-274.3271484375	-918.1395263671875	1717.181030273438	-228.1792297363281	
